<?xml version="1.0" encoding="UTF-8" standalone="no"?>
<!DOCTYPE svg PUBLIC "-//W3C//DTD SVG 1.1//EN"
 "http://www.w3.org/Graphics/SVG/1.1/DTD/svg11.dtd">
<!-- Generated by graphviz version 2.40.1 (20161225.0304)
 -->
<!-- Title: StCSP Pages: 1 -->
<svg width="109pt" height="275pt"
 viewBox="0.00 0.00 108.62 274.70" xmlns="http://www.w3.org/2000/svg" xmlns:xlink="http://www.w3.org/1999/xlink">
<g id="graph0" class="graph" transform="scale(1 1) rotate(0) translate(4 270.7021)">
<title>StCSP</title>
<polygon fill="#ffffff" stroke="transparent" points="-4,4 -4,-270.7021 104.6181,-270.7021 104.6181,4 -4,4"/>
<!-- 0 -->
<g id="node1" class="node">
<title>0</title>
<ellipse fill="none" stroke="#000000" cx="59.6181" cy="-238.5873" rx="24.2135" ry="24.2135"/>
<ellipse fill="none" stroke="#000000" cx="59.6181" cy="-238.5873" rx="28.2299" ry="28.2299"/>
<text text-anchor="middle" x="59.6181" y="-234.3873" font-family="Times,serif" font-size="14.00" fill="#000000">0: S</text>
</g>
<!-- 2 -->
<g id="node2" class="node">
<title>2</title>
<ellipse fill="none" stroke="#000000" cx="27.6181" cy="-132.8544" rx="23.7196" ry="23.7196"/>
<ellipse fill="none" stroke="#000000" cx="27.6181" cy="-132.8544" rx="27.7368" ry="27.7368"/>
<text text-anchor="middle" x="27.6181" y="-128.6544" font-family="Times,serif" font-size="14.00" fill="#000000">0: 0</text>
</g>
<!-- 0&#45;&gt;2 -->
<g id="edge1" class="edge">
<title>0&#45;&gt;2</title>
<path fill="none" stroke="#000000" d="M51.4604,-211.6329C47.5565,-198.7337 42.825,-183.1001 38.6094,-169.1712"/>
<polygon fill="#000000" stroke="#000000" points="41.8969,-167.9509 35.6502,-159.3935 35.197,-169.9787 41.8969,-167.9509"/>
<text text-anchor="middle" x="56.1181" y="-181.2726" font-family="Times,serif" font-size="14.00" fill="#000000">1, 0</text>
</g>
<!-- 1 -->
<g id="node3" class="node">
<title>1</title>
<ellipse fill="none" stroke="#000000" cx="55.6181" cy="-27.6181" rx="23.7196" ry="23.7196"/>
<ellipse fill="none" stroke="#000000" cx="55.6181" cy="-27.6181" rx="27.7368" ry="27.7368"/>
<text text-anchor="middle" x="55.6181" y="-23.4181" font-family="Times,serif" font-size="14.00" fill="#000000">0: 1</text>
</g>
<!-- 0&#45;&gt;1 -->
<g id="edge4" class="edge">
<title>0&#45;&gt;1</title>
<path fill="none" stroke="#000000" d="M67.2016,-211.4664C68.6211,-205.2732 69.8875,-198.6851 70.6181,-192.4726 73.8057,-165.3719 89.7978,-214.9953 68.6181,-73.2363 68.1584,-70.1591 67.5512,-66.9966 66.8501,-63.841"/>
<polygon fill="#000000" stroke="#000000" points="70.184,-62.7462 64.3564,-53.8981 63.3943,-64.4491 70.184,-62.7462"/>
<text text-anchor="middle" x="90.1181" y="-128.6544" font-family="Times,serif" font-size="14.00" fill="#000000">0, 1</text>
</g>
<!-- 2&#45;&gt;1 -->
<g id="edge2" class="edge">
<title>2&#45;&gt;1</title>
<path fill="none" stroke="#000000" d="M14.64,-108.3223C10.5689,-97.3752 8.1679,-84.4456 12.6181,-73.2363 15.6678,-65.5548 20.6918,-58.4165 26.2505,-52.175"/>
<polygon fill="#000000" stroke="#000000" points="28.9914,-54.3776 33.4691,-44.7754 23.9807,-49.4895 28.9914,-54.3776"/>
<text text-anchor="middle" x="23.1181" y="-76.0363" font-family="Times,serif" font-size="14.00" fill="#000000">0, 1</text>
</g>
<!-- 1&#45;&gt;2 -->
<g id="edge3" class="edge">
<title>1&#45;&gt;2</title>
<path fill="none" stroke="#000000" d="M48.4932,-54.397C45.1051,-67.1308 41.0025,-82.5502 37.3341,-96.3375"/>
<polygon fill="#000000" stroke="#000000" points="33.9452,-95.4629 34.7562,-106.0266 40.7098,-97.2628 33.9452,-95.4629"/>
<text text-anchor="middle" x="54.1181" y="-76.0363" font-family="Times,serif" font-size="14.00" fill="#000000">1, 0</text>
</g>
</g>
</svg>
