<?xml version="1.0" encoding="UTF-8" standalone="no"?>
<!DOCTYPE svg PUBLIC "-//W3C//DTD SVG 1.1//EN"
 "http://www.w3.org/Graphics/SVG/1.1/DTD/svg11.dtd">
<!-- Generated by graphviz version 2.40.1 (20161225.0304)
 -->
<!-- Title: StCSP Pages: 1 -->
<svg width="170pt" height="64pt"
 viewBox="0.00 0.00 170.23 64.23" xmlns="http://www.w3.org/2000/svg" xmlns:xlink="http://www.w3.org/1999/xlink">
<g id="graph0" class="graph" transform="scale(1 1) rotate(0) translate(4 60.2295)">
<title>StCSP</title>
<polygon fill="#ffffff" stroke="transparent" points="-4,4 -4,-60.2295 166.2295,-60.2295 166.2295,4 -4,4"/>
<!-- 0 -->
<g id="node1" class="node">
<title>0</title>
<ellipse fill="none" stroke="#000000" cx="28.1147" cy="-28.1147" rx="24.2135" ry="24.2135"/>
<ellipse fill="none" stroke="#000000" cx="28.1147" cy="-28.1147" rx="28.2299" ry="28.2299"/>
<text text-anchor="middle" x="28.1147" y="-23.9147" font-family="Times,serif" font-size="14.00" fill="#000000">0: S</text>
</g>
<!-- 0&#45;&gt;0 -->
<g id="edge1" class="edge">
<title>0&#45;&gt;0</title>
<path fill="none" stroke="#000000" d="M56.0303,-33.3596C66.0558,-33.4724 74.2295,-31.7241 74.2295,-28.1147 74.2295,-25.8589 71.0366,-24.33 66.1944,-23.5281"/>
<polygon fill="#000000" stroke="#000000" points="66.2356,-20.0235 56.0303,-22.8699 65.7832,-27.0089 66.2356,-20.0235"/>
<text text-anchor="middle" x="91.7295" y="-23.9147" font-family="Times,serif" font-size="14.00" fill="#000000">0, 1, 2</text>
</g>
<!-- 0&#45;&gt;0 -->
<g id="edge2" class="edge">
<title>0&#45;&gt;0</title>
<path fill="none" stroke="#000000" d="M55.1437,-36.9478C80.0206,-40.8482 109.2295,-37.9038 109.2295,-28.1147 109.2295,-19.6258 87.264,-16.2841 65.2063,-18.0898"/>
<polygon fill="#000000" stroke="#000000" points="64.6626,-14.6296 55.1437,-19.2816 65.486,-21.581 64.6626,-14.6296"/>
<text text-anchor="middle" x="126.7295" y="-23.9147" font-family="Times,serif" font-size="14.00" fill="#000000">1, 0, 2</text>
</g>
</g>
</svg>
