<?xml version="1.0" encoding="UTF-8" standalone="no"?>
<!DOCTYPE svg PUBLIC "-//W3C//DTD SVG 1.1//EN"
 "http://www.w3.org/Graphics/SVG/1.1/DTD/svg11.dtd">
<!-- Generated by graphviz version 2.40.1 (20161225.0304)
 -->
<!-- Title: StCSP Pages: 1 -->
<svg width="515pt" height="161pt"
 viewBox="0.00 0.00 515.18 160.62" xmlns="http://www.w3.org/2000/svg" xmlns:xlink="http://www.w3.org/1999/xlink">
<g id="graph0" class="graph" transform="scale(1 1) rotate(0) translate(4 156.6223)">
<title>StCSP</title>
<polygon fill="#ffffff" stroke="transparent" points="-4,4 -4,-156.6223 511.1766,-156.6223 511.1766,4 -4,4"/>
<!-- 0 -->
<g id="node1" class="node">
<title>0</title>
<ellipse fill="none" stroke="#000000" cx="59.9802" cy="-124.5076" rx="24.2135" ry="24.2135"/>
<ellipse fill="none" stroke="#000000" cx="59.9802" cy="-124.5076" rx="28.2299" ry="28.2299"/>
<text text-anchor="middle" x="59.9802" y="-120.3076" font-family="Times,serif" font-size="14.00" fill="#000000">0: S</text>
</g>
<!-- 1 -->
<g id="node2" class="node">
<title>1</title>
<ellipse fill="none" stroke="#000000" cx="59.9802" cy="-23.1964" rx="19.3604" ry="19.3604"/>
<ellipse fill="none" stroke="#000000" cx="59.9802" cy="-23.1964" rx="23.3945" ry="23.3945"/>
<text text-anchor="middle" x="59.9802" y="-18.9964" font-family="Times,serif" font-size="14.00" fill="#000000">1: </text>
</g>
<!-- 0&#45;&gt;1 -->
<g id="edge1" class="edge">
<title>0&#45;&gt;1</title>
<path fill="none" stroke="#000000" d="M34.476,-112.4427C14.9914,-101.4017 -6.9688,-83.8588 2.9802,-64.3928 8.7973,-53.011 19.3888,-44.0489 29.8771,-37.4308"/>
<polygon fill="#000000" stroke="#000000" points="31.6448,-40.4517 38.5558,-32.4212 28.1453,-34.3892 31.6448,-40.4517"/>
<text text-anchor="middle" x="20.4802" y="-67.1928" font-family="Times,serif" font-size="14.00" fill="#000000">3, 1, 3</text>
</g>
<!-- 0&#45;&gt;1 -->
<g id="edge2" class="edge">
<title>0&#45;&gt;1</title>
<path fill="none" stroke="#000000" d="M59.9802,-96.2868C59.9802,-84.028 59.9802,-69.5726 59.9802,-56.7671"/>
<polygon fill="#000000" stroke="#000000" points="63.4803,-56.4829 59.9802,-46.4829 56.4803,-56.483 63.4803,-56.4829"/>
<text text-anchor="middle" x="77.4802" y="-67.1928" font-family="Times,serif" font-size="14.00" fill="#000000">3, 2, 3</text>
</g>
<!-- 0&#45;&gt;1 -->
<g id="edge3" class="edge">
<title>0&#45;&gt;1</title>
<path fill="none" stroke="#000000" d="M80.1106,-104.7042C86.4592,-97.1343 92.6753,-87.9968 95.9802,-78.3928 100.0925,-66.4421 93.9523,-54.5273 85.642,-44.8427"/>
<polygon fill="#000000" stroke="#000000" points="88.1231,-42.3734 78.6666,-37.5959 83.0799,-47.2278 88.1231,-42.3734"/>
<text text-anchor="middle" x="114.4802" y="-67.1928" font-family="Times,serif" font-size="14.00" fill="#000000">2, 1, 2</text>
</g>
<!-- 1&#45;&gt;1 -->
<g id="edge4" class="edge">
<title>1&#45;&gt;1</title>
<path fill="none" stroke="#000000" d="M83.2731,-24.6832C92.9628,-24.7858 101.1766,-24.2902 101.1766,-23.1964 101.1766,-22.5299 98.1265,-22.0855 93.551,-21.8632"/>
<polygon fill="#000000" stroke="#000000" points="93.3243,-18.3596 83.2731,-21.7096 93.2196,-25.3588 93.3243,-18.3596"/>
<text text-anchor="middle" x="118.6766" y="-18.9964" font-family="Times,serif" font-size="14.00" fill="#000000">2, 3, 3</text>
</g>
<!-- 1&#45;&gt;1 -->
<g id="edge5" class="edge">
<title>1&#45;&gt;1</title>
<path fill="none" stroke="#000000" d="M83.2725,-25.6222C107.007,-26.88 136.1766,-26.0714 136.1766,-23.1964 136.1766,-20.7257 114.6341,-19.7811 93.5117,-20.3626"/>
<polygon fill="#000000" stroke="#000000" points="93.1252,-16.8751 83.2725,-20.7706 93.404,-23.8696 93.1252,-16.8751"/>
<text text-anchor="middle" x="153.6766" y="-18.9964" font-family="Times,serif" font-size="14.00" fill="#000000">2, 1, 2</text>
</g>
<!-- 1&#45;&gt;1 -->
<g id="edge6" class="edge">
<title>1&#45;&gt;1</title>
<path fill="none" stroke="#000000" d="M83.1352,-26.2126C118.2279,-28.9245 171.1766,-27.9191 171.1766,-23.1964 171.1766,-18.9165 127.6904,-17.6895 93.4175,-19.5155"/>
<polygon fill="#000000" stroke="#000000" points="92.8886,-16.0423 83.1352,-20.1802 93.3402,-23.0277 92.8886,-16.0423"/>
<text text-anchor="middle" x="188.6766" y="-18.9964" font-family="Times,serif" font-size="14.00" fill="#000000">3, 1, 3</text>
</g>
<!-- 1&#45;&gt;1 -->
<g id="edge7" class="edge">
<title>1&#45;&gt;1</title>
<path fill="none" stroke="#000000" d="M82.9918,-26.6431C128.0478,-30.9547 206.1766,-29.8058 206.1766,-23.1964 206.1766,-17.0647 138.9319,-15.6327 93.236,-18.9005"/>
<polygon fill="#000000" stroke="#000000" points="92.6684,-15.4355 82.9918,-19.7497 93.2468,-22.4116 92.6684,-15.4355"/>
<text text-anchor="middle" x="223.6766" y="-18.9964" font-family="Times,serif" font-size="14.00" fill="#000000">3, 2, 3</text>
</g>
<!-- 1&#45;&gt;1 -->
<g id="edge8" class="edge">
<title>1&#45;&gt;1</title>
<path fill="none" stroke="#000000" d="M82.9567,-26.9885C137.1422,-32.9761 241.1766,-31.712 241.1766,-23.1964 241.1766,-15.1798 148.9766,-13.5898 92.964,-18.4265"/>
<polygon fill="#000000" stroke="#000000" points="92.5689,-14.9483 82.9567,-19.4043 93.2497,-21.9152 92.5689,-14.9483"/>
<text text-anchor="middle" x="258.6766" y="-18.9964" font-family="Times,serif" font-size="14.00" fill="#000000">2, 3, 3</text>
</g>
<!-- 1&#45;&gt;1 -->
<g id="edge9" class="edge">
<title>1&#45;&gt;1</title>
<path fill="none" stroke="#000000" d="M83.0868,-27.2909C145.8961,-34.9909 276.1766,-33.6261 276.1766,-23.1964 276.1766,-13.2964 158.7918,-11.5639 93.1515,-17.999"/>
<polygon fill="#000000" stroke="#000000" points="92.646,-14.5334 83.0868,-19.1019 93.4086,-21.4917 92.646,-14.5334"/>
<text text-anchor="middle" x="293.6766" y="-18.9964" font-family="Times,serif" font-size="14.00" fill="#000000">2, 1, 2</text>
</g>
<!-- 1&#45;&gt;1 -->
<g id="edge10" class="edge">
<title>1&#45;&gt;1</title>
<path fill="none" stroke="#000000" d="M83.1469,-27.5415C154.1638,-37.0042 311.1766,-35.5558 311.1766,-23.1964 311.1766,-11.3922 167.9536,-9.5408 93.2161,-17.6421"/>
<polygon fill="#000000" stroke="#000000" points="92.6582,-14.1839 83.1469,-18.8513 93.4929,-21.134 92.6582,-14.1839"/>
<text text-anchor="middle" x="328.6766" y="-18.9964" font-family="Times,serif" font-size="14.00" fill="#000000">1, 3, 3</text>
</g>
<!-- 1&#45;&gt;1 -->
<g id="edge11" class="edge">
<title>1&#45;&gt;1</title>
<path fill="none" stroke="#000000" d="M82.9698,-27.725C161.7623,-39.0184 346.1766,-37.5089 346.1766,-23.1964 346.1766,-9.457 176.2342,-7.5158 92.9235,-17.3729"/>
<polygon fill="#000000" stroke="#000000" points="92.4346,-13.9069 82.9698,-18.6679 93.3378,-20.8484 92.4346,-13.9069"/>
<text text-anchor="middle" x="363.6766" y="-18.9964" font-family="Times,serif" font-size="14.00" fill="#000000">1, 2, 2</text>
</g>
</g>
</svg>
