<?xml version="1.0" encoding="UTF-8" standalone="no"?>
<!DOCTYPE svg PUBLIC "-//W3C//DTD SVG 1.1//EN"
 "http://www.w3.org/Graphics/SVG/1.1/DTD/svg11.dtd">
<!-- Generated by graphviz version 2.40.1 (20161225.0304)
 -->
<!-- Title: StCSP Pages: 1 -->
<svg width="8893pt" height="251pt"
 viewBox="0.00 0.00 8893.23 251.27" xmlns="http://www.w3.org/2000/svg" xmlns:xlink="http://www.w3.org/1999/xlink">
<g id="graph0" class="graph" transform="scale(1 1) rotate(0) translate(4 247.2742)">
<title>StCSP</title>
<polygon fill="#ffffff" stroke="transparent" points="-4,4 -4,-247.2742 8889.2295,-247.2742 8889.2295,4 -4,4"/>
<!-- 0 -->
<g id="node1" class="node">
<title>0</title>
<ellipse fill="none" stroke="#000000" cx="28.1147" cy="-121.6496" rx="24.2135" ry="24.2135"/>
<ellipse fill="none" stroke="#000000" cx="28.1147" cy="-121.6496" rx="28.2299" ry="28.2299"/>
<text text-anchor="middle" x="28.1147" y="-117.4496" font-family="Times,serif" font-size="14.00" fill="#000000">0: S</text>
</g>
<!-- 0&#45;&gt;0 -->
<g id="edge1" class="edge">
<title>0&#45;&gt;0</title>
<path fill="none" stroke="#000000" d="M56.4847,-123.1492C66.3016,-123.1651 74.2295,-122.6652 74.2295,-121.6496 74.2295,-121.0307 71.2856,-120.6033 66.7642,-120.3675"/>
<polygon fill="#000000" stroke="#000000" points="66.5565,-116.8624 56.4847,-120.15 66.4084,-123.8608 66.5565,-116.8624"/>
<text text-anchor="middle" x="119.7295" y="-117.4496" font-family="Times,serif" font-size="14.00" fill="#000000">2, 2, 2, 2, 2, 2, 2</text>
</g>
<!-- 0&#45;&gt;0 -->
<g id="edge2" class="edge">
<title>0&#45;&gt;0</title>
<path fill="none" stroke="#000000" d="M56.3057,-123.8153C97.7287,-125.4262 165.2295,-124.7043 165.2295,-121.6496 165.2295,-118.8336 107.8637,-118 66.4471,-119.149"/>
<polygon fill="#000000" stroke="#000000" points="66.1848,-115.6557 56.3057,-119.4839 66.4158,-122.6519 66.1848,-115.6557"/>
<text text-anchor="middle" x="210.7295" y="-117.4496" font-family="Times,serif" font-size="14.00" fill="#000000">2, 2, 2, 1, 2, 1, 2</text>
</g>
<!-- 0&#45;&gt;0 -->
<g id="edge3" class="edge">
<title>0&#45;&gt;0</title>
<path fill="none" stroke="#000000" d="M56.1395,-124.2346C119.2102,-127.4683 256.2295,-126.6066 256.2295,-121.6496 256.2295,-116.9443 132.7729,-115.929 66.2924,-118.6036"/>
<polygon fill="#000000" stroke="#000000" points="65.9704,-115.1145 56.1395,-119.0646 66.288,-122.1073 65.9704,-115.1145"/>
<text text-anchor="middle" x="301.7295" y="-117.4496" font-family="Times,serif" font-size="14.00" fill="#000000">2, 2, 2, 0, 2, 0, 2</text>
</g>
<!-- 0&#45;&gt;0 -->
<g id="edge4" class="edge">
<title>0&#45;&gt;0</title>
<path fill="none" stroke="#000000" d="M56.2203,-124.5836C137.159,-129.487 347.2295,-128.509 347.2295,-121.6496 347.2295,-115.0582 153.2502,-113.8976 66.2762,-118.1679"/>
<polygon fill="#000000" stroke="#000000" points="66.0151,-114.6769 56.2203,-118.7156 66.3958,-121.6665 66.0151,-114.6769"/>
<text text-anchor="middle" x="392.7295" y="-117.4496" font-family="Times,serif" font-size="14.00" fill="#000000">2, 2, 1, 2, 2, 1, 2</text>
</g>
<!-- 0&#45;&gt;0 -->
<g id="edge5" class="edge">
<title>0&#45;&gt;0</title>
<path fill="none" stroke="#000000" d="M56.0694,-124.8647C152.4753,-131.5006 438.2295,-130.4289 438.2295,-121.6496 438.2295,-113.1618 171.1361,-111.8783 66.2811,-117.799"/>
<polygon fill="#000000" stroke="#000000" points="65.8326,-114.3201 56.0694,-118.4345 66.2675,-121.3065 65.8326,-114.3201"/>
<text text-anchor="middle" x="483.7295" y="-117.4496" font-family="Times,serif" font-size="14.00" fill="#000000">2, 2, 1, 1, 2, 1, 2</text>
</g>
<!-- 0&#45;&gt;0 -->
<g id="edge6" class="edge">
<title>0&#45;&gt;0</title>
<path fill="none" stroke="#000000" d="M56.2321,-125.1289C166.9349,-133.5086 529.2295,-132.3488 529.2295,-121.6496 529.2295,-111.2534 187.1649,-109.8639 66.2289,-117.4813"/>
<polygon fill="#000000" stroke="#000000" points="65.9677,-113.9909 56.2321,-118.1703 66.4491,-120.9743 65.9677,-113.9909"/>
<text text-anchor="middle" x="574.7295" y="-117.4496" font-family="Times,serif" font-size="14.00" fill="#000000">2, 2, 1, 0, 2, 0, 2</text>
</g>
<!-- 0&#45;&gt;0 -->
<g id="edge7" class="edge">
<title>0&#45;&gt;0</title>
<path fill="none" stroke="#000000" d="M56.2067,-125.3506C179.9433,-135.5161 620.2295,-134.2824 620.2295,-121.6496 620.2295,-109.3375 202.0177,-107.8531 66.2317,-117.1963"/>
<polygon fill="#000000" stroke="#000000" points="65.9167,-113.71 56.2067,-117.9486 66.4406,-120.6904 65.9167,-113.71"/>
<text text-anchor="middle" x="665.7295" y="-117.4496" font-family="Times,serif" font-size="14.00" fill="#000000">2, 2, 0, 2, 2, 0, 2</text>
</g>
<!-- 0&#45;&gt;0 -->
<g id="edge8" class="edge">
<title>0&#45;&gt;0</title>
<path fill="none" stroke="#000000" d="M56.038,-125.5361C191.7606,-137.5232 711.2295,-136.2277 711.2295,-121.6496 711.2295,-107.4131 215.8254,-105.844 66.2017,-116.9421"/>
<polygon fill="#000000" stroke="#000000" points="65.7237,-113.4692 56.038,-117.763 66.2873,-120.4465 65.7237,-113.4692"/>
<text text-anchor="middle" x="756.7295" y="-117.4496" font-family="Times,serif" font-size="14.00" fill="#000000">2, 2, 0, 1, 2, 0, 2</text>
</g>
<!-- 0&#45;&gt;0 -->
<g id="edge9" class="edge">
<title>0&#45;&gt;0</title>
<path fill="none" stroke="#000000" d="M56.0291,-125.7159C203.3099,-139.5285 802.2295,-138.173 802.2295,-121.6496 802.2295,-105.4812 228.7683,-103.836 66.1368,-116.714"/>
<polygon fill="#000000" stroke="#000000" points="65.6924,-113.2392 56.0291,-117.5833 66.2923,-120.2135 65.6924,-113.2392"/>
<text text-anchor="middle" x="847.7295" y="-117.4496" font-family="Times,serif" font-size="14.00" fill="#000000">2, 2, 0, 0, 2, 0, 2</text>
</g>
<!-- 0&#45;&gt;0 -->
<g id="edge10" class="edge">
<title>0&#45;&gt;0</title>
<path fill="none" stroke="#000000" d="M55.9381,-125.8718C214.0958,-141.5336 893.2295,-140.1262 893.2295,-121.6496 893.2295,-103.5429 241.0155,-101.8288 66.0536,-116.5073"/>
<polygon fill="#000000" stroke="#000000" points="65.5799,-113.0359 55.9381,-117.4274 66.214,-120.0071 65.5799,-113.0359"/>
<text text-anchor="middle" x="938.7295" y="-117.4496" font-family="Times,serif" font-size="14.00" fill="#000000">2, 1, 2, 2, 1, 2, 2</text>
</g>
<!-- 0&#45;&gt;0 -->
<g id="edge11" class="edge">
<title>0&#45;&gt;0</title>
<path fill="none" stroke="#000000" d="M55.9024,-126.0193C224.585,-143.5378 984.2295,-142.0812 984.2295,-121.6496 984.2295,-101.5971 252.5134,-99.822 65.8937,-116.3244"/>
<polygon fill="#000000" stroke="#000000" points="65.5237,-112.8437 55.9024,-117.2799 66.1902,-119.8119 65.5237,-112.8437"/>
<text text-anchor="middle" x="1029.7295" y="-117.4496" font-family="Times,serif" font-size="14.00" fill="#000000">2, 1, 2, 1, 1, 1, 1</text>
</g>
<!-- 0&#45;&gt;0 -->
<g id="edge12" class="edge">
<title>0&#45;&gt;0</title>
<path fill="none" stroke="#000000" d="M56.0441,-126.1742C235.2504,-145.5406 1075.2295,-144.0324 1075.2295,-121.6496 1075.2295,-99.6602 264.5214,-97.818 66.0988,-116.123"/>
<polygon fill="#000000" stroke="#000000" points="65.6478,-112.6505 56.0441,-117.1249 66.3419,-119.616 65.6478,-112.6505"/>
<text text-anchor="middle" x="1120.7295" y="-117.4496" font-family="Times,serif" font-size="14.00" fill="#000000">2, 1, 2, 0, 1, 0, 1</text>
</g>
<!-- 0&#45;&gt;0 -->
<g id="edge13" class="edge">
<title>0&#45;&gt;0</title>
<path fill="none" stroke="#000000" d="M55.8828,-126.2865C244.6477,-147.5448 1166.2295,-145.9992 1166.2295,-121.6496 1166.2295,-97.7042 274.9931,-95.812 65.8825,-115.9728"/>
<polygon fill="#000000" stroke="#000000" points="65.4671,-112.497 55.8828,-117.0127 66.1912,-119.4595 65.4671,-112.497"/>
<text text-anchor="middle" x="1211.7295" y="-117.4496" font-family="Times,serif" font-size="14.00" fill="#000000">2, 1, 1, 2, 1, 1, 1</text>
</g>
<!-- 0&#45;&gt;0 -->
<g id="edge14" class="edge">
<title>0&#45;&gt;0</title>
<path fill="none" stroke="#000000" d="M56.0551,-126.4276C254.8542,-149.547 1257.2295,-147.9543 1257.2295,-121.6496 1257.2295,-95.7688 286.897,-93.81 66.2834,-115.7733"/>
<polygon fill="#000000" stroke="#000000" points="65.6242,-112.3238 56.0551,-116.8716 66.3717,-119.2838 65.6242,-112.3238"/>
<text text-anchor="middle" x="1302.7295" y="-117.4496" font-family="Times,serif" font-size="14.00" fill="#000000">2, 1, 1, 1, 1, 1, 1</text>
</g>
<!-- 0&#45;&gt;0 -->
<g id="edge15" class="edge">
<title>0&#45;&gt;0</title>
<path fill="none" stroke="#000000" d="M56.0113,-126.5364C264.1053,-151.55 1348.2295,-149.9211 1348.2295,-121.6496 1348.2295,-93.8061 296.6771,-91.8046 66.0562,-115.6453"/>
<polygon fill="#000000" stroke="#000000" points="65.5629,-112.1785 56.0113,-116.7628 66.337,-119.1355 65.5629,-112.1785"/>
<text text-anchor="middle" x="1393.7295" y="-117.4496" font-family="Times,serif" font-size="14.00" fill="#000000">2, 1, 1, 0, 1, 0, 1</text>
</g>
<!-- 0&#45;&gt;0 -->
<g id="edge16" class="edge">
<title>0&#45;&gt;0</title>
<path fill="none" stroke="#000000" d="M56.0988,-126.6542C273.6019,-153.5522 1439.2295,-151.884 1439.2295,-121.6496 1439.2295,-91.8581 307.5011,-89.802 66.2607,-115.4813"/>
<polygon fill="#000000" stroke="#000000" points="65.6356,-112.0299 56.0988,-116.645 66.432,-118.9845 65.6356,-112.0299"/>
<text text-anchor="middle" x="1484.7295" y="-117.4496" font-family="Times,serif" font-size="14.00" fill="#000000">2, 1, 0, 2, 1, 0, 1</text>
</g>
<!-- 0&#45;&gt;0 -->
<g id="edge17" class="edge">
<title>0&#45;&gt;0</title>
<path fill="none" stroke="#000000" d="M56.016,-126.7449C282.2987,-155.555 1530.2295,-153.8566 1530.2295,-121.6496 1530.2295,-89.8986 317.3903,-87.7984 66.2367,-115.3488"/>
<polygon fill="#000000" stroke="#000000" points="65.5371,-111.907 56.016,-116.5543 66.3571,-118.8588 65.5371,-111.907"/>
<text text-anchor="middle" x="1575.7295" y="-117.4496" font-family="Times,serif" font-size="14.00" fill="#000000">2, 1, 0, 1, 1, 0, 1</text>
</g>
<!-- 0&#45;&gt;0 -->
<g id="edge18" class="edge">
<title>0&#45;&gt;0</title>
<path fill="none" stroke="#000000" d="M55.7706,-126.8081C290.1926,-157.5585 1621.2295,-155.8391 1621.2295,-121.6496 1621.2295,-87.9276 326.3393,-85.7937 65.9943,-115.2481"/>
<polygon fill="#000000" stroke="#000000" points="65.2751,-111.8097 55.7706,-116.4911 66.12,-118.7585 65.2751,-111.8097"/>
<text text-anchor="middle" x="1666.7295" y="-117.4496" font-family="Times,serif" font-size="14.00" fill="#000000">2, 1, 0, 0, 1, 0, 1</text>
</g>
<!-- 0&#45;&gt;0 -->
<g id="edge19" class="edge">
<title>0&#45;&gt;0</title>
<path fill="none" stroke="#000000" d="M55.7437,-126.894C298.7314,-159.5608 1712.2295,-157.8127 1712.2295,-121.6496 1712.2295,-85.9633 335.7557,-83.7905 65.9584,-115.1312"/>
<polygon fill="#000000" stroke="#000000" points="65.2335,-111.6944 55.7437,-116.4052 66.1,-118.6406 65.2335,-111.6944"/>
<text text-anchor="middle" x="1757.7295" y="-117.4496" font-family="Times,serif" font-size="14.00" fill="#000000">2, 0, 2, 2, 0, 2, 2</text>
</g>
<!-- 0&#45;&gt;0 -->
<g id="edge20" class="edge">
<title>0&#45;&gt;0</title>
<path fill="none" stroke="#000000" d="M55.9775,-127.0109C308.1586,-161.5617 1803.2295,-159.7746 1803.2295,-121.6496 1803.2295,-84.0086 345.8784,-81.7887 66.1774,-114.9899"/>
<polygon fill="#000000" stroke="#000000" points="65.4555,-111.5535 55.9775,-116.2883 66.3395,-118.4975 65.4555,-111.5535"/>
<text text-anchor="middle" x="1848.7295" y="-117.4496" font-family="Times,serif" font-size="14.00" fill="#000000">2, 0, 2, 1, 0, 1, 1</text>
</g>
<!-- 0&#45;&gt;0 -->
<g id="edge21" class="edge">
<title>0&#45;&gt;0</title>
<path fill="none" stroke="#000000" d="M55.7149,-127.0555C315.4902,-163.5648 1894.2295,-161.7629 1894.2295,-121.6496 1894.2295,-82.026 353.7984,-79.7841 65.8125,-114.9238"/>
<polygon fill="#000000" stroke="#000000" points="65.1769,-111.477 55.7149,-116.2437 66.0842,-118.418 65.1769,-111.477"/>
<text text-anchor="middle" x="1939.7295" y="-117.4496" font-family="Times,serif" font-size="14.00" fill="#000000">2, 0, 2, 0, 0, 0, 0</text>
</g>
<!-- 0&#45;&gt;0 -->
<g id="edge22" class="edge">
<title>0&#45;&gt;0</title>
<path fill="none" stroke="#000000" d="M55.7453,-127.1366C323.8709,-165.5665 1985.2295,-163.7375 1985.2295,-121.6496 1985.2295,-80.0549 362.5808,-77.7811 65.7407,-114.8281"/>
<polygon fill="#000000" stroke="#000000" points="65.1941,-111.3699 55.7453,-116.1626 66.1205,-118.3083 65.1941,-111.3699"/>
<text text-anchor="middle" x="2030.7295" y="-117.4496" font-family="Times,serif" font-size="14.00" fill="#000000">2, 0, 1, 2, 0, 1, 1</text>
</g>
<!-- 0&#45;&gt;0 -->
<g id="edge23" class="edge">
<title>0&#45;&gt;0</title>
<path fill="none" stroke="#000000" d="M55.6849,-127.2012C331.7674,-167.5685 2076.2295,-165.718 2076.2295,-121.6496 2076.2295,-78.0977 372.4136,-75.7799 65.9907,-114.6962"/>
<polygon fill="#000000" stroke="#000000" points="65.1219,-111.2821 55.6849,-116.098 66.0654,-118.2182 65.1219,-111.2821"/>
<text text-anchor="middle" x="2121.7295" y="-117.4496" font-family="Times,serif" font-size="14.00" fill="#000000">2, 0, 1, 1, 0, 1, 1</text>
</g>
<!-- 0&#45;&gt;0 -->
<g id="edge24" class="edge">
<title>0&#45;&gt;0</title>
<path fill="none" stroke="#000000" d="M55.9709,-127.3136C341.0387,-169.5688 2167.2295,-167.6808 2167.2295,-121.6496 2167.2295,-76.1353 381.8264,-73.7783 66.1536,-114.5787"/>
<polygon fill="#000000" stroke="#000000" points="65.3977,-111.1498 55.9709,-115.9856 66.3558,-118.0839 65.3977,-111.1498"/>
<text text-anchor="middle" x="2212.7295" y="-117.4496" font-family="Times,serif" font-size="14.00" fill="#000000">2, 0, 1, 0, 0, 0, 0</text>
</g>
<!-- 0&#45;&gt;0 -->
<g id="edge25" class="edge">
<title>0&#45;&gt;0</title>
<path fill="none" stroke="#000000" d="M55.7478,-127.3476C348.0461,-171.5714 2258.2295,-169.6721 2258.2295,-121.6496 2258.2295,-74.143 388.8648,-71.7739 65.7233,-114.5424"/>
<polygon fill="#000000" stroke="#000000" points="65.1599,-111.0872 55.7478,-115.9516 66.1391,-118.0183 65.1599,-111.0872"/>
<text text-anchor="middle" x="2303.7295" y="-117.4496" font-family="Times,serif" font-size="14.00" fill="#000000">2, 0, 0, 2, 0, 0, 0</text>
</g>
<!-- 0&#45;&gt;0 -->
<g id="edge26" class="edge">
<title>0&#45;&gt;0</title>
<path fill="none" stroke="#000000" d="M55.8988,-127.4351C356.5908,-173.5722 2349.2295,-171.6437 2349.2295,-121.6496 2349.2295,-72.1925 399.1715,-69.774 66.1703,-114.3939"/>
<polygon fill="#000000" stroke="#000000" points="65.302,-110.9825 55.8988,-115.8641 66.2939,-117.9118 65.302,-110.9825"/>
<text text-anchor="middle" x="2394.7295" y="-117.4496" font-family="Times,serif" font-size="14.00" fill="#000000">2, 0, 0, 1, 0, 0, 0</text>
</g>
<!-- 0&#45;&gt;0 -->
<g id="edge27" class="edge">
<title>0&#45;&gt;0</title>
<path fill="none" stroke="#000000" d="M55.9909,-127.5114C364.8122,-175.5733 2440.2295,-173.6193 2440.2295,-121.6496 2440.2295,-70.2128 407.1563,-67.7713 66.0438,-114.3251"/>
<polygon fill="#000000" stroke="#000000" points="65.3827,-110.8843 55.9909,-115.7878 66.3906,-117.8114 65.3827,-110.8843"/>
<text text-anchor="middle" x="2485.7295" y="-117.4496" font-family="Times,serif" font-size="14.00" fill="#000000">2, 0, 0, 0, 0, 0, 0</text>
</g>
<!-- 0&#45;&gt;0 -->
<g id="edge28" class="edge">
<title>0&#45;&gt;0</title>
<path fill="none" stroke="#000000" d="M56.0252,-127.5766C372.7098,-177.5745 2531.2295,-175.5988 2531.2295,-121.6496 2531.2295,-68.2404 415.706,-65.7695 66.0846,-114.2368"/>
<polygon fill="#000000" stroke="#000000" points="65.4064,-110.7989 56.0252,-115.7226 66.4293,-117.7238 65.4064,-110.7989"/>
<text text-anchor="middle" x="2576.7295" y="-117.4496" font-family="Times,serif" font-size="14.00" fill="#000000">1, 2, 2, 2, 1, 2, 2</text>
</g>
<!-- 0&#45;&gt;0 -->
<g id="edge29" class="edge">
<title>0&#45;&gt;0</title>
<path fill="none" stroke="#000000" d="M56.0031,-127.6307C380.283,-179.5759 2622.2295,-177.5822 2622.2295,-121.6496 2622.2295,-66.2632 423.8572,-63.7674 66.0483,-114.1621"/>
<polygon fill="#000000" stroke="#000000" points="65.3734,-110.7241 56.0031,-115.6685 66.4116,-117.6467 65.3734,-110.7241"/>
<text text-anchor="middle" x="2667.7295" y="-117.4496" font-family="Times,serif" font-size="14.00" fill="#000000">1, 2, 2, 1, 1, 1, 1</text>
</g>
<!-- 0&#45;&gt;0 -->
<g id="edge30" class="edge">
<title>0&#45;&gt;0</title>
<path fill="none" stroke="#000000" d="M55.6747,-127.6326C386.3549,-181.5785 2713.2295,-179.5842 2713.2295,-121.6496 2713.2295,-64.2667 430.4546,-61.7637 65.6596,-114.1409"/>
<polygon fill="#000000" stroke="#000000" points="65.0312,-110.6962 55.6747,-115.6666 66.0886,-117.6159 65.0312,-110.6962"/>
<text text-anchor="middle" x="2758.7295" y="-117.4496" font-family="Times,serif" font-size="14.00" fill="#000000">1, 2, 2, 0, 1, 0, 1</text>
</g>
<!-- 0&#45;&gt;0 -->
<g id="edge31" class="edge">
<title>0&#45;&gt;0</title>
<path fill="none" stroke="#000000" d="M55.7948,-127.7051C394.4546,-183.5792 2804.2295,-181.5607 2804.2295,-121.6496 2804.2295,-62.2943 438.9598,-59.7624 65.7516,-114.054"/>
<polygon fill="#000000" stroke="#000000" points="65.1422,-110.6065 55.7948,-115.5941 66.2124,-117.5243 65.1422,-110.6065"/>
<text text-anchor="middle" x="2849.7295" y="-117.4496" font-family="Times,serif" font-size="14.00" fill="#000000">1, 2, 1, 2, 1, 1, 1</text>
</g>
<!-- 0&#45;&gt;0 -->
<g id="edge32" class="edge">
<title>0&#45;&gt;0</title>
<path fill="none" stroke="#000000" d="M55.6112,-127.7254C401.052,-185.5811 2895.2295,-183.5558 2895.2295,-121.6496 2895.2295,-60.3026 445.9093,-57.7596 65.4951,-114.0206"/>
<polygon fill="#000000" stroke="#000000" points="64.9466,-110.5638 55.6112,-115.5738 66.0333,-117.4789 64.9466,-110.5638"/>
<text text-anchor="middle" x="2940.7295" y="-117.4496" font-family="Times,serif" font-size="14.00" fill="#000000">1, 2, 1, 1, 1, 1, 1</text>
</g>
<!-- 0&#45;&gt;0 -->
<g id="edge33" class="edge">
<title>0&#45;&gt;0</title>
<path fill="none" stroke="#000000" d="M55.6429,-127.7796C408.6235,-187.5821 2986.2295,-185.5388 2986.2295,-121.6496 2986.2295,-58.3376 454.9812,-55.7591 65.7496,-113.9141"/>
<polygon fill="#000000" stroke="#000000" points="64.97,-110.494 55.6429,-115.5196 66.0682,-117.4073 64.97,-110.494"/>
<text text-anchor="middle" x="3031.7295" y="-117.4496" font-family="Times,serif" font-size="14.00" fill="#000000">1, 2, 1, 0, 1, 0, 1</text>
</g>
<!-- 0&#45;&gt;0 -->
<g id="edge34" class="edge">
<title>0&#45;&gt;0</title>
<path fill="none" stroke="#000000" d="M55.6345,-127.8254C415.951,-189.5832 3077.2295,-187.5246 3077.2295,-121.6496 3077.2295,-56.3536 462.5257,-53.7571 65.6649,-113.8602"/>
<polygon fill="#000000" stroke="#000000" points="64.9516,-110.4299 55.6345,-115.4738 66.0635,-117.341 64.9516,-110.4299"/>
<text text-anchor="middle" x="3122.7295" y="-117.4496" font-family="Times,serif" font-size="14.00" fill="#000000">1, 2, 0, 2, 1, 0, 1</text>
</g>
<!-- 0&#45;&gt;0 -->
<g id="edge35" class="edge">
<title>0&#45;&gt;0</title>
<path fill="none" stroke="#000000" d="M55.5866,-127.8627C423.0342,-191.5844 3168.2295,-189.5134 3168.2295,-121.6496 3168.2295,-54.3657 469.7487,-51.755 65.5236,-113.8174"/>
<polygon fill="#000000" stroke="#000000" points="64.8935,-110.3738 55.5866,-115.4365 66.0193,-117.2827 64.8935,-110.3738"/>
<text text-anchor="middle" x="3213.7295" y="-117.4496" font-family="Times,serif" font-size="14.00" fill="#000000">1, 2, 0, 1, 1, 0, 1</text>
</g>
<!-- 0&#45;&gt;0 -->
<g id="edge36" class="edge">
<title>0&#45;&gt;0</title>
<path fill="none" stroke="#000000" d="M55.783,-127.9411C431.2966,-193.5847 3259.2295,-191.4875 3259.2295,-121.6496 3259.2295,-52.4085 479.419,-49.7553 65.9431,-113.6901"/>
<polygon fill="#000000" stroke="#000000" points="65.0839,-110.2842 55.783,-115.358 66.2179,-117.1918 65.0839,-110.2842"/>
<text text-anchor="middle" x="3304.7295" y="-117.4496" font-family="Times,serif" font-size="14.00" fill="#000000">1, 2, 0, 0, 1, 0, 1</text>
</g>
<!-- 0&#45;&gt;0 -->
<g id="edge37" class="edge">
<title>0&#45;&gt;0</title>
<path fill="none" stroke="#000000" d="M55.6632,-127.963C437.9317,-195.5861 3350.2295,-193.4816 3350.2295,-121.6496 3350.2295,-50.4138 486.0798,-47.7529 65.7024,-113.6667"/>
<polygon fill="#000000" stroke="#000000" points="64.9535,-110.2431 55.6632,-115.3362 66.1019,-117.1482 64.9535,-110.2431"/>
<text text-anchor="middle" x="3395.7295" y="-117.4496" font-family="Times,serif" font-size="14.00" fill="#000000">1, 1, 2, 2, 1, 2, 2</text>
</g>
<!-- 0&#45;&gt;0 -->
<g id="edge38" class="edge">
<title>0&#45;&gt;0</title>
<path fill="none" stroke="#000000" d="M55.7995,-128.0287C445.828,-197.5865 3441.2295,-195.4601 3441.2295,-121.6496 3441.2295,-48.4337 493.8994,-45.7516 65.7309,-113.6032"/>
<polygon fill="#000000" stroke="#000000" points="65.0821,-110.1631 55.7995,-115.2705 66.241,-117.0665 65.0821,-110.1631"/>
<text text-anchor="middle" x="3486.7295" y="-117.4496" font-family="Times,serif" font-size="14.00" fill="#000000">1, 1, 2, 1, 1, 1, 1</text>
</g>
<!-- 0&#45;&gt;0 -->
<g id="edge39" class="edge">
<title>0&#45;&gt;0</title>
<path fill="none" stroke="#000000" d="M55.6101,-128.035C452.0143,-199.5881 3532.2295,-197.4597 3532.2295,-121.6496 3532.2295,-46.4503 501.4468,-43.7502 65.7108,-113.5491"/>
<polygon fill="#000000" stroke="#000000" points="64.8831,-110.1395 55.6101,-115.2642 66.055,-117.0407 64.8831,-110.1395"/>
<text text-anchor="middle" x="3577.7295" y="-117.4496" font-family="Times,serif" font-size="14.00" fill="#000000">1, 1, 2, 0, 1, 0, 1</text>
</g>
<!-- 0&#45;&gt;0 -->
<g id="edge40" class="edge">
<title>0&#45;&gt;0</title>
<path fill="none" stroke="#000000" d="M55.6882,-128.088C459.5439,-201.5887 3623.2295,-199.4426 3623.2295,-121.6496 3623.2295,-44.4644 508.7834,-41.7486 65.6561,-113.5023"/>
<polygon fill="#000000" stroke="#000000" points="64.953,-110.0717 55.6882,-115.2112 66.1359,-116.9711 64.953,-110.0717"/>
<text text-anchor="middle" x="3668.7295" y="-117.4496" font-family="Times,serif" font-size="14.00" fill="#000000">1, 1, 1, 2, 1, 1, 1</text>
</g>
<!-- 0&#45;&gt;0 -->
<g id="edge41" class="edge">
<title>0&#45;&gt;0</title>
<path fill="none" stroke="#000000" d="M55.7405,-128.1354C466.9104,-203.5894 3714.2295,-201.4274 3714.2295,-121.6496 3714.2295,-42.495 517.4516,-39.7483 65.8937,-113.4095"/>
<polygon fill="#000000" stroke="#000000" points="64.9986,-110.0122 55.7405,-115.1638 66.1905,-116.91 64.9986,-110.0122"/>
<text text-anchor="middle" x="3759.7295" y="-117.4496" font-family="Times,serif" font-size="14.00" fill="#000000">1, 1, 1, 1, 1, 1, 1</text>
</g>
<!-- 0&#45;&gt;0 -->
<g id="edge42" class="edge">
<title>0&#45;&gt;0</title>
<path fill="none" stroke="#000000" d="M55.7674,-128.1772C474.1138,-205.5901 3805.2295,-203.4142 3805.2295,-121.6496 3805.2295,-40.5038 524.3451,-37.7466 65.7638,-113.378"/>
<polygon fill="#000000" stroke="#000000" points="65.017,-109.9553 55.7674,-115.122 66.2201,-116.8512 65.017,-109.9553"/>
<text text-anchor="middle" x="3850.7295" y="-117.4496" font-family="Times,serif" font-size="14.00" fill="#000000">1, 1, 1, 0, 1, 0, 1</text>
</g>
<!-- 0&#45;&gt;0 -->
<g id="edge43" class="edge">
<title>0&#45;&gt;0</title>
<path fill="none" stroke="#000000" d="M55.769,-128.2133C481.1539,-207.5909 3896.2295,-205.403 3896.2295,-121.6496 3896.2295,-38.5301 532.6513,-35.7461 65.9384,-113.2977"/>
<polygon fill="#000000" stroke="#000000" points="65.0117,-109.9068 55.769,-115.0859 66.2241,-116.801 65.0117,-109.9068"/>
<text text-anchor="middle" x="3941.7295" y="-117.4496" font-family="Times,serif" font-size="14.00" fill="#000000">1, 1, 0, 2, 1, 0, 1</text>
</g>
<!-- 0&#45;&gt;0 -->
<g id="edge44" class="edge">
<title>0&#45;&gt;0</title>
<path fill="none" stroke="#000000" d="M55.7458,-128.2437C488.0306,-209.5918 3987.2295,-207.3937 3987.2295,-121.6496 3987.2295,-36.5335 539.1007,-33.7441 65.7353,-113.2815"/>
<polygon fill="#000000" stroke="#000000" points="64.9798,-109.8608 55.7458,-115.0555 66.2038,-116.753 64.9798,-109.8608"/>
<text text-anchor="middle" x="4032.7295" y="-117.4496" font-family="Times,serif" font-size="14.00" fill="#000000">1, 1, 0, 1, 1, 0, 1</text>
</g>
<!-- 0&#45;&gt;0 -->
<g id="edge45" class="edge">
<title>0&#45;&gt;0</title>
<path fill="none" stroke="#000000" d="M55.6982,-128.2684C494.7438,-211.5927 4078.2295,-209.3864 4078.2295,-121.6496 4078.2295,-34.5554 547.044,-31.7434 65.8486,-113.2137"/>
<polygon fill="#000000" stroke="#000000" points="64.9249,-109.8233 55.6982,-115.0308 66.1585,-116.7138 64.9249,-109.8233"/>
<text text-anchor="middle" x="4123.7295" y="-117.4496" font-family="Times,serif" font-size="14.00" fill="#000000">1, 1, 0, 0, 1, 0, 1</text>
</g>
<!-- 0&#45;&gt;0 -->
<g id="edge46" class="edge">
<title>0&#45;&gt;0</title>
<path fill="none" stroke="#000000" d="M55.6263,-128.2874C501.2933,-213.5937 4169.2295,-211.381 4169.2295,-121.6496 4169.2295,-32.5535 553.048,-29.7413 65.5745,-113.213"/>
<polygon fill="#000000" stroke="#000000" points="64.844,-109.7882 55.6263,-115.0117 66.0895,-116.6765 64.844,-109.7882"/>
<text text-anchor="middle" x="4214.7295" y="-117.4496" font-family="Times,serif" font-size="14.00" fill="#000000">1, 0, 2, 2, 0, 2, 2</text>
</g>
<!-- 0&#45;&gt;0 -->
<g id="edge47" class="edge">
<title>0&#45;&gt;0</title>
<path fill="none" stroke="#000000" d="M55.5306,-128.3008C507.6791,-215.5947 4260.2295,-213.3776 4260.2295,-121.6496 4260.2295,-30.571 560.6277,-27.7404 65.6281,-113.1577"/>
<polygon fill="#000000" stroke="#000000" points="64.7408,-109.7617 55.5306,-114.9984 65.9962,-116.6483 64.7408,-109.7617"/>
<text text-anchor="middle" x="4305.7295" y="-117.4496" font-family="Times,serif" font-size="14.00" fill="#000000">1, 0, 2, 1, 0, 1, 1</text>
</g>
<!-- 0&#45;&gt;0 -->
<g id="edge48" class="edge">
<title>0&#45;&gt;0</title>
<path fill="none" stroke="#000000" d="M55.7559,-128.3754C515.8199,-217.5946 4351.2295,-215.3527 4351.2295,-121.6496 4351.2295,-28.587 568.0779,-25.7395 65.6617,-113.107"/>
<polygon fill="#000000" stroke="#000000" points="64.9604,-109.6771 55.7559,-114.9238 66.2233,-116.5623 64.9604,-109.6771"/>
<text text-anchor="middle" x="4396.7295" y="-117.4496" font-family="Times,serif" font-size="14.00" fill="#000000">1, 0, 2, 0, 0, 0, 0</text>
</g>
<!-- 0&#45;&gt;0 -->
<g id="edge49" class="edge">
<title>0&#45;&gt;0</title>
<path fill="none" stroke="#000000" d="M55.618,-128.3787C521.9193,-219.5958 4442.2295,-217.3527 4442.2295,-121.6496 4442.2295,-26.6007 575.3341,-23.7385 65.6626,-113.0629"/>
<polygon fill="#000000" stroke="#000000" points="64.8147,-109.6603 55.618,-114.9205 66.0877,-116.5436 64.8147,-109.6603"/>
<text text-anchor="middle" x="4487.7295" y="-117.4496" font-family="Times,serif" font-size="14.00" fill="#000000">1, 0, 1, 2, 0, 1, 1</text>
</g>
<!-- 0&#45;&gt;0 -->
<g id="edge50" class="edge">
<title>0&#45;&gt;0</title>
<path fill="none" stroke="#000000" d="M55.457,-128.3764C527.8546,-221.5969 4533.2295,-219.3547 4533.2295,-121.6496 4533.2295,-24.6124 582.4284,-21.7374 65.6377,-113.0245"/>
<polygon fill="#000000" stroke="#000000" points="64.646,-109.649 55.457,-114.9228 65.9292,-116.5304 64.646,-109.649"/>
<text text-anchor="middle" x="4578.7295" y="-117.4496" font-family="Times,serif" font-size="14.00" fill="#000000">1, 0, 1, 1, 0, 1, 1</text>
</g>
<!-- 0&#45;&gt;0 -->
<g id="edge51" class="edge">
<title>0&#45;&gt;0</title>
<path fill="none" stroke="#000000" d="M55.6325,-128.4396C535.6687,-223.597 4624.2295,-221.3337 4624.2295,-121.6496 4624.2295,-22.6226 589.393,-19.7363 65.5936,-112.9905"/>
<polygon fill="#000000" stroke="#000000" points="64.8155,-109.5754 55.6325,-114.8596 66.1065,-116.4553 64.8155,-109.5754"/>
<text text-anchor="middle" x="4669.7295" y="-117.4496" font-family="Times,serif" font-size="14.00" fill="#000000">1, 0, 1, 0, 0, 0, 0</text>
</g>
<!-- 0&#45;&gt;0 -->
<g id="edge52" class="edge">
<title>0&#45;&gt;0</title>
<path fill="none" stroke="#000000" d="M55.4308,-128.4272C541.3171,-225.5983 4715.2295,-223.3391 4715.2295,-121.6496 4715.2295,-20.6305 596.1629,-17.735 65.5179,-112.9633"/>
<polygon fill="#000000" stroke="#000000" points="64.6057,-109.5737 55.4308,-114.872 65.9072,-116.4517 64.6057,-109.5737"/>
<text text-anchor="middle" x="4760.7295" y="-117.4496" font-family="Times,serif" font-size="14.00" fill="#000000">1, 0, 0, 2, 0, 0, 0</text>
</g>
<!-- 0&#45;&gt;0 -->
<g id="edge53" class="edge">
<title>0&#45;&gt;0</title>
<path fill="none" stroke="#000000" d="M55.5757,-128.4834C548.9268,-227.5984 4806.2295,-225.3205 4806.2295,-121.6496 4806.2295,-18.6368 602.803,-15.7338 65.4235,-112.9406"/>
<polygon fill="#000000" stroke="#000000" points="64.7445,-109.507 55.5757,-114.8158 66.0539,-116.3834 64.7445,-109.507"/>
<text text-anchor="middle" x="4851.7295" y="-117.4496" font-family="Times,serif" font-size="14.00" fill="#000000">1, 0, 0, 1, 0, 0, 0</text>
</g>
<!-- 0&#45;&gt;0 -->
<g id="edge54" class="edge">
<title>0&#45;&gt;0</title>
<path fill="none" stroke="#000000" d="M55.7083,-128.5367C556.4548,-229.5986 4897.2295,-227.3029 4897.2295,-121.6496 4897.2295,-16.6669 611.3874,-13.7339 65.7061,-112.8505"/>
<polygon fill="#000000" stroke="#000000" points="64.8728,-109.4463 55.7083,-114.7625 66.1877,-116.3217 64.8728,-109.4463"/>
<text text-anchor="middle" x="4942.7295" y="-117.4496" font-family="Times,serif" font-size="14.00" fill="#000000">1, 0, 0, 0, 0, 0, 0</text>
</g>
<!-- 0&#45;&gt;0 -->
<g id="edge55" class="edge">
<title>0&#45;&gt;0</title>
<path fill="none" stroke="#000000" d="M55.449,-128.51C561.693,-231.6 4988.2295,-229.3132 4988.2295,-121.6496 4988.2295,-14.6694 617.7109,-11.7325 65.5611,-112.8388"/>
<polygon fill="#000000" stroke="#000000" points="64.6052,-109.4586 55.449,-114.7892 65.9309,-116.3319 64.6052,-109.4586"/>
<text text-anchor="middle" x="5033.7295" y="-117.4496" font-family="Times,serif" font-size="14.00" fill="#000000">0, 2, 2, 2, 0, 2, 2</text>
</g>
<!-- 0&#45;&gt;0 -->
<g id="edge56" class="edge">
<title>0&#45;&gt;0</title>
<path fill="none" stroke="#000000" d="M55.5518,-128.5562C569.0163,-233.6002 5079.2295,-231.298 5079.2295,-121.6496 5079.2295,-12.6704 623.9046,-9.7311 65.3984,-112.8316"/>
<polygon fill="#000000" stroke="#000000" points="64.7016,-109.4015 55.5518,-114.743 66.0356,-116.2732 64.7016,-109.4015"/>
<text text-anchor="middle" x="5124.7295" y="-117.4496" font-family="Times,serif" font-size="14.00" fill="#000000">0, 2, 2, 1, 0, 1, 1</text>
</g>
<!-- 0&#45;&gt;0 -->
<g id="edge57" class="edge">
<title>0&#45;&gt;0</title>
<path fill="none" stroke="#000000" d="M55.6425,-128.5995C576.2578,-235.6005 5170.2295,-233.2839 5170.2295,-121.6496 5170.2295,-10.6967 632.1654,-7.731 65.6286,-112.7527"/>
<polygon fill="#000000" stroke="#000000" points="64.7879,-109.3506 55.6425,-114.6997 66.1276,-116.2212 64.7879,-109.3506"/>
<text text-anchor="middle" x="5215.7295" y="-117.4496" font-family="Times,serif" font-size="14.00" fill="#000000">0, 2, 2, 0, 0, 0, 0</text>
</g>
<!-- 0&#45;&gt;0 -->
<g id="edge58" class="edge">
<title>0&#45;&gt;0</title>
<path fill="none" stroke="#000000" d="M55.7213,-128.64C583.4174,-237.6008 5261.2295,-235.2707 5261.2295,-121.6496 5261.2295,-8.722 640.3453,-5.731 65.8455,-112.6765"/>
<polygon fill="#000000" stroke="#000000" points="64.8622,-109.3025 55.7213,-114.6592 66.2076,-116.1721 64.8622,-109.3025"/>
<text text-anchor="middle" x="5306.7295" y="-117.4496" font-family="Times,serif" font-size="14.00" fill="#000000">0, 2, 1, 2, 0, 1, 1</text>
</g>
<!-- 0&#45;&gt;0 -->
<g id="edge59" class="edge">
<title>0&#45;&gt;0</title>
<path fill="none" stroke="#000000" d="M55.3893,-128.5946C588.1216,-239.6023 5352.2295,-237.2873 5352.2295,-121.6496 5352.2295,-6.7177 646.0998,-3.7294 65.6147,-112.6846"/>
<polygon fill="#000000" stroke="#000000" points="64.5214,-109.3329 55.3893,-114.7046 65.878,-116.2002 64.5214,-109.3329"/>
<text text-anchor="middle" x="5397.7295" y="-117.4496" font-family="Times,serif" font-size="14.00" fill="#000000">0, 2, 1, 1, 0, 1, 1</text>
</g>
<!-- 0&#45;&gt;0 -->
<g id="edge60" class="edge">
<title>0&#45;&gt;0</title>
<path fill="none" stroke="#000000" d="M55.4393,-128.628C595.0762,-241.6027 5443.2295,-239.2766 5443.2295,-121.6496 5443.2295,-4.7119 651.724,-1.7277 65.367,-112.6972"/>
<polygon fill="#000000" stroke="#000000" points="64.5647,-109.2882 55.4393,-114.6712 65.9299,-116.1538 64.5647,-109.2882"/>
<text text-anchor="middle" x="5488.7295" y="-117.4496" font-family="Times,serif" font-size="14.00" fill="#000000">0, 2, 1, 0, 0, 0, 0</text>
</g>
<!-- 0&#45;&gt;0 -->
<g id="edge61" class="edge">
<title>0&#45;&gt;0</title>
<path fill="none" stroke="#000000" d="M55.4776,-128.6584C601.9487,-243.6031 5534.2295,-241.2668 5534.2295,-121.6496 5534.2295,-2.7333 659.5796,.2725 65.5334,-112.6323"/>
<polygon fill="#000000" stroke="#000000" points="64.5984,-109.2499 55.4776,-114.6408 65.9695,-116.1143 64.5984,-109.2499"/>
<text text-anchor="middle" x="5579.7295" y="-117.4496" font-family="Times,serif" font-size="14.00" fill="#000000">0, 2, 0, 2, 0, 0, 0</text>
</g>
<!-- 0&#45;&gt;0 -->
<g id="edge62" class="edge">
<title>0&#45;&gt;0</title>
<path fill="none" stroke="#000000" d="M55.5043,-128.686C608.7393,-245.6035 5625.2295,-243.258 5625.2295,-121.6496 5625.2295,-.7537 667.3541,2.2727 65.687,-112.5703"/>
<polygon fill="#000000" stroke="#000000" points="64.6205,-109.2144 55.5043,-114.6132 65.9975,-116.0776 64.6205,-109.2144"/>
<text text-anchor="middle" x="5670.7295" y="-117.4496" font-family="Times,serif" font-size="14.00" fill="#000000">0, 2, 0, 1, 0, 0, 0</text>
</g>
<!-- 0&#45;&gt;0 -->
<g id="edge63" class="edge">
<title>0&#45;&gt;0</title>
<path fill="none" stroke="#000000" d="M55.5196,-128.7108C615.4478,-247.6039 5716.2295,-245.2502 5716.2295,-121.6496 5716.2295,1.2569 672.5712,4.2745 65.3798,-112.5971"/>
<polygon fill="#000000" stroke="#000000" points="64.6288,-109.178 55.5196,-114.5884 66.0146,-116.0395 64.6288,-109.178"/>
<text text-anchor="middle" x="5761.7295" y="-117.4496" font-family="Times,serif" font-size="14.00" fill="#000000">0, 2, 0, 0, 0, 0, 0</text>
</g>
<!-- 0&#45;&gt;0 -->
<g id="edge64" class="edge">
<title>0&#45;&gt;0</title>
<path fill="none" stroke="#000000" d="M55.5234,-128.7326C622.0743,-249.6044 5807.2295,-247.2433 5807.2295,-121.6496 5807.2295,3.2389 680.1426,6.2748 65.5025,-112.542"/>
<polygon fill="#000000" stroke="#000000" points="64.6278,-109.1481 55.5234,-114.5666 66.0197,-116.0083 64.6278,-109.1481"/>
<text text-anchor="middle" x="5852.7295" y="-117.4496" font-family="Times,serif" font-size="14.00" fill="#000000">0, 1, 2, 2, 0, 2, 2</text>
</g>
<!-- 0&#45;&gt;0 -->
<g id="edge65" class="edge">
<title>0&#45;&gt;0</title>
<path fill="none" stroke="#000000" d="M55.5159,-128.7517C628.6187,-251.6048 5898.2295,-249.2375 5898.2295,-121.6496 5898.2295,5.2219 687.6328,8.2751 65.6127,-112.4898"/>
<polygon fill="#000000" stroke="#000000" points="64.6155,-109.121 55.5159,-114.5475 66.0134,-115.98 64.6155,-109.121"/>
<text text-anchor="middle" x="5943.7295" y="-117.4496" font-family="Times,serif" font-size="14.00" fill="#000000">0, 1, 2, 1, 0, 1, 1</text>
</g>
<!-- 0&#45;&gt;0 -->
<g id="edge66" class="edge">
<title>0&#45;&gt;0</title>
<path fill="none" stroke="#000000" d="M55.4971,-128.7678C635.081,-253.6053 5989.2295,-251.2326 5989.2295,-121.6496 5989.2295,7.2058 695.0418,10.2755 65.7105,-112.4404"/>
<polygon fill="#000000" stroke="#000000" points="64.5919,-109.0968 55.4971,-114.5314 65.9959,-115.9545 64.5919,-109.0968"/>
<text text-anchor="middle" x="6034.7295" y="-117.4496" font-family="Times,serif" font-size="14.00" fill="#000000">0, 1, 2, 0, 0, 0, 0</text>
</g>
<!-- 0&#45;&gt;0 -->
<g id="edge67" class="edge">
<title>0&#45;&gt;0</title>
<path fill="none" stroke="#000000" d="M55.4672,-128.7811C641.4611,-255.6059 6080.2295,-253.2287 6080.2295,-121.6496 6080.2295,9.2228 699.7285,12.2774 65.3279,-112.4857"/>
<polygon fill="#000000" stroke="#000000" points="64.5547,-109.0714 55.4672,-114.5181 65.9679,-115.9273 64.5547,-109.0714"/>
<text text-anchor="middle" x="6125.7295" y="-117.4496" font-family="Times,serif" font-size="14.00" fill="#000000">0, 1, 1, 2, 0, 1, 1</text>
</g>
<!-- 0&#45;&gt;0 -->
<g id="edge68" class="edge">
<title>0&#45;&gt;0</title>
<path fill="none" stroke="#000000" d="M55.4261,-128.7915C647.7591,-257.6064 6171.2295,-255.2258 6171.2295,-121.6496 6171.2295,11.2091 706.9339,14.2778 65.3957,-112.4434"/>
<polygon fill="#000000" stroke="#000000" points="64.5088,-109.0528 55.4261,-114.5077 65.9281,-115.9074 64.5088,-109.0528"/>
<text text-anchor="middle" x="6216.7295" y="-117.4496" font-family="Times,serif" font-size="14.00" fill="#000000">0, 1, 1, 1, 0, 1, 1</text>
</g>
<!-- 0&#45;&gt;0 -->
<g id="edge69" class="edge">
<title>0&#45;&gt;0</title>
<path fill="none" stroke="#000000" d="M55.3741,-128.799C653.9748,-259.607 6262.2295,-257.2238 6262.2295,-121.6496 6262.2295,13.1964 714.0579,16.2783 65.4514,-112.404"/>
<polygon fill="#000000" stroke="#000000" points="64.4517,-109.0369 55.3741,-114.5002 65.8773,-115.8902 64.4517,-109.0369"/>
<text text-anchor="middle" x="6307.7295" y="-117.4496" font-family="Times,serif" font-size="14.00" fill="#000000">0, 1, 1, 0, 0, 0, 0</text>
</g>
<!-- 0&#45;&gt;0 -->
<g id="edge70" class="edge">
<title>0&#45;&gt;0</title>
<path fill="none" stroke="#000000" d="M55.3111,-128.8037C660.1083,-261.6075 6353.2295,-259.2228 6353.2295,-121.6496 6353.2295,15.1847 721.1006,18.2788 65.4951,-112.3673"/>
<polygon fill="#000000" stroke="#000000" points="64.3837,-109.0239 55.3111,-114.4955 65.8156,-115.8759 64.3837,-109.0239"/>
<text text-anchor="middle" x="6398.7295" y="-117.4496" font-family="Times,serif" font-size="14.00" fill="#000000">0, 1, 0, 2, 0, 0, 0</text>
</g>
<!-- 0&#45;&gt;0 -->
<g id="edge71" class="edge">
<title>0&#45;&gt;0</title>
<path fill="none" stroke="#000000" d="M55.6935,-128.9059C669.0295,-263.6069 6444.2295,-261.1882 6444.2295,-121.6496 6444.2295,17.1736 728.0961,20.2793 65.5327,-112.3323"/>
<polygon fill="#000000" stroke="#000000" points="64.7635,-108.9174 55.6935,-114.3933 66.1987,-115.7687 64.7635,-108.9174"/>
<text text-anchor="middle" x="6489.7295" y="-117.4496" font-family="Times,serif" font-size="14.00" fill="#000000">0, 1, 0, 1, 0, 0, 0</text>
</g>
<!-- 0&#45;&gt;0 -->
<g id="edge72" class="edge">
<title>0&#45;&gt;0</title>
<path fill="none" stroke="#000000" d="M55.6133,-128.9062C675.0399,-265.6075 6535.2295,-263.1887 6535.2295,-121.6496 6535.2295,19.1638 734.9757,22.2799 65.5524,-112.3013"/>
<polygon fill="#000000" stroke="#000000" points="64.6782,-108.9086 55.6133,-114.393 66.1198,-115.7585 64.6782,-108.9086"/>
<text text-anchor="middle" x="6580.7295" y="-117.4496" font-family="Times,serif" font-size="14.00" fill="#000000">0, 1, 0, 0, 0, 0, 0</text>
</g>
<!-- 0&#45;&gt;0 -->
<g id="edge73" class="edge">
<title>0&#45;&gt;0</title>
<path fill="none" stroke="#000000" d="M55.5224,-128.9037C680.9681,-267.6082 6626.2295,-265.1901 6626.2295,-121.6496 6626.2295,21.155 741.7739,24.2805 65.5603,-112.2732"/>
<polygon fill="#000000" stroke="#000000" points="64.5821,-108.9026 55.5224,-114.3955 66.0301,-115.7512 64.5821,-108.9026"/>
<text text-anchor="middle" x="6671.7295" y="-117.4496" font-family="Times,serif" font-size="14.00" fill="#000000">0, 0, 2, 2, 0, 2, 2</text>
</g>
<!-- 0&#45;&gt;0 -->
<g id="edge74" class="edge">
<title>0&#45;&gt;0</title>
<path fill="none" stroke="#000000" d="M55.4208,-128.8983C686.8138,-269.6088 6717.2295,-267.1926 6717.2295,-121.6496 6717.2295,23.1649 747.0258,26.2818 65.3053,-112.2989"/>
<polygon fill="#000000" stroke="#000000" points="64.4741,-108.8973 55.4208,-114.4009 65.9302,-115.7442 64.4741,-108.8973"/>
<text text-anchor="middle" x="6762.7295" y="-117.4496" font-family="Times,serif" font-size="14.00" fill="#000000">0, 0, 2, 1, 0, 1, 1</text>
</g>
<!-- 0&#45;&gt;0 -->
<g id="edge75" class="edge">
<title>0&#45;&gt;0</title>
<path fill="none" stroke="#000000" d="M55.3087,-128.89C692.5772,-271.6095 6808.2295,-269.196 6808.2295,-121.6496 6808.2295,25.1583 753.6403,28.2825 65.2873,-112.2772"/>
<polygon fill="#000000" stroke="#000000" points="64.3567,-108.8969 55.3087,-114.4092 65.8193,-115.7424 64.3567,-108.8969"/>
<text text-anchor="middle" x="6853.7295" y="-117.4496" font-family="Times,serif" font-size="14.00" fill="#000000">0, 0, 2, 0, 0, 0, 0</text>
</g>
<!-- 0&#45;&gt;0 -->
<g id="edge76" class="edge">
<title>0&#45;&gt;0</title>
<path fill="none" stroke="#000000" d="M55.6658,-128.9866C701.3352,-273.6089 6899.2295,-271.1633 6899.2295,-121.6496 6899.2295,27.134 761.7138,30.2823 65.5197,-112.2047"/>
<polygon fill="#000000" stroke="#000000" points="64.7124,-108.7981 55.6658,-114.3126 66.1768,-115.6432 64.7124,-108.7981"/>
<text text-anchor="middle" x="6944.7295" y="-117.4496" font-family="Times,serif" font-size="14.00" fill="#000000">0, 0, 1, 2, 0, 1, 1</text>
</g>
<!-- 0&#45;&gt;0 -->
<g id="edge77" class="edge">
<title>0&#45;&gt;0</title>
<path fill="none" stroke="#000000" d="M55.537,-128.974C706.9754,-275.6096 6990.2295,-273.1682 6990.2295,-121.6496 6990.2295,29.1291 768.1855,32.283 65.481,-112.1879"/>
<polygon fill="#000000" stroke="#000000" points="64.5782,-108.8019 55.537,-114.3252 66.0492,-115.6456 64.5782,-108.8019"/>
<text text-anchor="middle" x="7035.7295" y="-117.4496" font-family="Times,serif" font-size="14.00" fill="#000000">0, 0, 1, 1, 0, 1, 1</text>
</g>
<!-- 0&#45;&gt;0 -->
<g id="edge78" class="edge">
<title>0&#45;&gt;0</title>
<path fill="none" stroke="#000000" d="M55.3978,-128.9585C712.5331,-277.6103 7081.2295,-275.174 7081.2295,-121.6496 7081.2295,31.1252 774.5756,34.2837 65.4309,-112.174"/>
<polygon fill="#000000" stroke="#000000" points="64.4336,-108.8086 55.3978,-114.3407 65.9113,-115.6509 64.4336,-108.8086"/>
<text text-anchor="middle" x="7126.7295" y="-117.4496" font-family="Times,serif" font-size="14.00" fill="#000000">0, 0, 1, 0, 0, 0, 0</text>
</g>
<!-- 0&#45;&gt;0 -->
<g id="edge79" class="edge">
<title>0&#45;&gt;0</title>
<path fill="none" stroke="#000000" d="M55.7424,-129.0522C721.2095,-279.6098 7172.2295,-277.1423 7172.2295,-121.6496 7172.2295,33.1028 782.4866,36.2837 65.6388,-112.1071"/>
<polygon fill="#000000" stroke="#000000" points="64.7768,-108.7125 55.7424,-114.247 66.2563,-115.5544 64.7768,-108.7125"/>
<text text-anchor="middle" x="7217.7295" y="-117.4496" font-family="Times,serif" font-size="14.00" fill="#000000">0, 0, 0, 2, 0, 0, 0</text>
</g>
<!-- 0&#45;&gt;0 -->
<g id="edge80" class="edge">
<title>0&#45;&gt;0</title>
<path fill="none" stroke="#000000" d="M55.5867,-129.0324C726.6439,-281.6105 7263.2295,-279.1496 7263.2295,-121.6496 7263.2295,35.1006 788.7337,38.2844 65.5684,-112.0982"/>
<polygon fill="#000000" stroke="#000000" points="64.6157,-108.7234 55.5867,-114.2668 66.1019,-115.5639 64.6157,-108.7234"/>
<text text-anchor="middle" x="7308.7295" y="-117.4496" font-family="Times,serif" font-size="14.00" fill="#000000">0, 0, 0, 1, 0, 0, 0</text>
</g>
<!-- 0&#45;&gt;0 -->
<g id="edge81" class="edge">
<title>0&#45;&gt;0</title>
<path fill="none" stroke="#000000" d="M55.4208,-129.0097C731.9958,-283.6113 7354.2295,-281.1579 7354.2295,-121.6496 7354.2295,37.1188 793.29,40.2859 65.2186,-112.1482"/>
<polygon fill="#000000" stroke="#000000" points="64.4429,-108.735 55.4208,-114.2895 65.9376,-115.5736 64.4429,-108.735"/>
<text text-anchor="middle" x="7399.7295" y="-117.4496" font-family="Times,serif" font-size="14.00" fill="#000000">0, 0, 0, 0, 0, 0, 0</text>
</g>
</g>
</svg>
