<?xml version="1.0" encoding="UTF-8" standalone="no"?>
<!DOCTYPE svg PUBLIC "-//W3C//DTD SVG 1.1//EN"
 "http://www.w3.org/Graphics/SVG/1.1/DTD/svg11.dtd">
<!-- Generated by graphviz version 2.40.1 (20161225.0304)
 -->
<!-- Title: StCSP Pages: 1 -->
<svg width="142pt" height="64pt"
 viewBox="0.00 0.00 142.23 64.23" xmlns="http://www.w3.org/2000/svg" xmlns:xlink="http://www.w3.org/1999/xlink">
<g id="graph0" class="graph" transform="scale(1 1) rotate(0) translate(4 60.2295)">
<title>StCSP</title>
<polygon fill="#ffffff" stroke="transparent" points="-4,4 -4,-60.2295 138.2295,-60.2295 138.2295,4 -4,4"/>
<!-- 0 -->
<g id="node1" class="node">
<title>0</title>
<ellipse fill="none" stroke="#000000" cx="28.1147" cy="-28.1147" rx="24.2135" ry="24.2135"/>
<ellipse fill="none" stroke="#000000" cx="28.1147" cy="-28.1147" rx="28.2299" ry="28.2299"/>
<text text-anchor="middle" x="28.1147" y="-23.9147" font-family="Times,serif" font-size="14.00" fill="#000000">0: S</text>
</g>
<!-- 0&#45;&gt;0 -->
<g id="edge1" class="edge">
<title>0&#45;&gt;0</title>
<path fill="none" stroke="#000000" d="M56.0303,-33.3596C66.0558,-33.4724 74.2295,-31.7241 74.2295,-28.1147 74.2295,-25.8589 71.0366,-24.33 66.1944,-23.5281"/>
<polygon fill="#000000" stroke="#000000" points="66.2356,-20.0235 56.0303,-22.8699 65.7832,-27.0089 66.2356,-20.0235"/>
<text text-anchor="middle" x="84.7295" y="-23.9147" font-family="Times,serif" font-size="14.00" fill="#000000">0, 1</text>
</g>
<!-- 0&#45;&gt;0 -->
<g id="edge2" class="edge">
<title>0&#45;&gt;0</title>
<path fill="none" stroke="#000000" d="M54.8968,-37.4298C74.8197,-40.5713 95.2295,-37.4663 95.2295,-28.1147 95.2295,-20.3705 81.2326,-16.91 65.1066,-17.7334"/>
<polygon fill="#000000" stroke="#000000" points="64.4791,-14.2798 54.8968,-18.7997 65.2063,-21.242 64.4791,-14.2798"/>
<text text-anchor="middle" x="105.7295" y="-23.9147" font-family="Times,serif" font-size="14.00" fill="#000000">1, 0</text>
</g>
</g>
</svg>
