<?xml version="1.0" encoding="UTF-8" standalone="no"?>
<!DOCTYPE svg PUBLIC "-//W3C//DTD SVG 1.1//EN"
 "http://www.w3.org/Graphics/SVG/1.1/DTD/svg11.dtd">
<!-- Generated by graphviz version 2.40.1 (20161225.0304)
 -->
<!-- Title: StCSP Pages: 1 -->
<svg width="668pt" height="556pt"
 viewBox="0.00 0.00 668.46 555.92" xmlns="http://www.w3.org/2000/svg" xmlns:xlink="http://www.w3.org/1999/xlink">
<g id="graph0" class="graph" transform="scale(1 1) rotate(0) translate(4 551.9224)">
<title>StCSP</title>
<polygon fill="#ffffff" stroke="transparent" points="-4,4 -4,-551.9224 664.4616,-551.9224 664.4616,4 -4,4"/>
<!-- 0 -->
<g id="node1" class="node">
<title>0</title>
<ellipse fill="none" stroke="#000000" cx="457.4616" cy="-519.8077" rx="24.2135" ry="24.2135"/>
<ellipse fill="none" stroke="#000000" cx="457.4616" cy="-519.8077" rx="28.2299" ry="28.2299"/>
<text text-anchor="middle" x="457.4616" y="-515.6077" font-family="Times,serif" font-size="14.00" fill="#000000">0: S</text>
</g>
<!-- 2 -->
<g id="node2" class="node">
<title>2</title>
<ellipse fill="none" stroke="#000000" cx="344.4616" cy="-405.2313" rx="32.4275" ry="32.4275"/>
<ellipse fill="none" stroke="#000000" cx="344.4616" cy="-405.2313" rx="36.4233" ry="36.4233"/>
<text text-anchor="middle" x="344.4616" y="-401.0313" font-family="Times,serif" font-size="14.00" fill="#000000">1: 1, 0</text>
</g>
<!-- 0&#45;&gt;2 -->
<g id="edge1" class="edge">
<title>0&#45;&gt;2</title>
<path fill="none" stroke="#000000" d="M437.5196,-499.5875C420.8897,-482.7256 396.8549,-458.3554 377.3773,-438.6062"/>
<polygon fill="#000000" stroke="#000000" points="379.6744,-435.9509 370.1605,-431.2887 374.6905,-440.8663 379.6744,-435.9509"/>
<text text-anchor="middle" x="455.9616" y="-462.4929" font-family="Times,serif" font-size="14.00" fill="#000000">1, 1, 1, 0, 0, 0, 1</text>
</g>
<!-- 1 -->
<g id="node5" class="node">
<title>1</title>
<ellipse fill="none" stroke="#000000" cx="463.4616" cy="-36.4616" rx="32.4275" ry="32.4275"/>
<ellipse fill="none" stroke="#000000" cx="463.4616" cy="-36.4616" rx="36.4233" ry="36.4233"/>
<text text-anchor="middle" x="463.4616" y="-32.2616" font-family="Times,serif" font-size="14.00" fill="#000000">1: 0, 0</text>
</g>
<!-- 0&#45;&gt;1 -->
<g id="edge10" class="edge">
<title>0&#45;&gt;1</title>
<path fill="none" stroke="#000000" d="M483.1567,-507.726C516.2229,-490.1882 569.4616,-454.3277 569.4616,-405.2313 569.4616,-405.2313 569.4616,-405.2313 569.4616,-159.3848 569.4616,-117.2706 533.3362,-82.4347 503.2643,-60.7321"/>
<polygon fill="#000000" stroke="#000000" points="505.185,-57.8046 494.9781,-54.9639 501.1858,-63.5497 505.185,-57.8046"/>
<text text-anchor="middle" x="614.9616" y="-278.1081" font-family="Times,serif" font-size="14.00" fill="#000000">0, 1, 1, 0, 0, 0, 1</text>
</g>
<!-- 4 -->
<g id="node3" class="node">
<title>4</title>
<ellipse fill="none" stroke="#000000" cx="36.4616" cy="-282.3081" rx="32.4275" ry="32.4275"/>
<ellipse fill="none" stroke="#000000" cx="36.4616" cy="-282.3081" rx="36.4233" ry="36.4233"/>
<text text-anchor="middle" x="36.4616" y="-278.1081" font-family="Times,serif" font-size="14.00" fill="#000000">1: 1, 1</text>
</g>
<!-- 2&#45;&gt;4 -->
<g id="edge2" class="edge">
<title>2&#45;&gt;4</title>
<path fill="none" stroke="#000000" d="M307.9353,-402.3175C260.505,-397.3042 176.2511,-384.1349 112.4616,-350.7697 96.1504,-342.2381 80.588,-329.3912 67.8423,-317.1224"/>
<polygon fill="#000000" stroke="#000000" points="70.2389,-314.5697 60.6789,-310.0025 65.3042,-319.5345 70.2389,-314.5697"/>
<text text-anchor="middle" x="157.9616" y="-339.5697" font-family="Times,serif" font-size="14.00" fill="#000000">1, 0, 1, 0, 1, 1, 0</text>
</g>
<!-- 3 -->
<g id="node4" class="node">
<title>3</title>
<ellipse fill="none" stroke="#000000" cx="252.4616" cy="-159.3848" rx="32.4275" ry="32.4275"/>
<ellipse fill="none" stroke="#000000" cx="252.4616" cy="-159.3848" rx="36.4233" ry="36.4233"/>
<text text-anchor="middle" x="252.4616" y="-155.1848" font-family="Times,serif" font-size="14.00" fill="#000000">1: 0, 1</text>
</g>
<!-- 2&#45;&gt;3 -->
<g id="edge9" class="edge">
<title>2&#45;&gt;3</title>
<path fill="none" stroke="#000000" d="M310.0771,-392.6696C279.5464,-379.4575 236.8548,-355.4335 217.4616,-318.7697 197.6651,-281.3435 212.9107,-233.2957 229.0309,-199.7829"/>
<polygon fill="#000000" stroke="#000000" points="232.2135,-201.2443 233.5725,-190.737 225.9577,-198.1035 232.2135,-201.2443"/>
<text text-anchor="middle" x="262.9616" y="-278.1081" font-family="Times,serif" font-size="14.00" fill="#000000">0, 0, 1, 0, 1, 1, 0</text>
</g>
<!-- 4&#45;&gt;4 -->
<g id="edge3" class="edge">
<title>4&#45;&gt;4</title>
<path fill="none" stroke="#000000" d="M71.2941,-293.5519C82.2668,-293.3802 90.9232,-289.6323 90.9232,-282.3081 90.9232,-277.5016 87.1952,-274.2352 81.5311,-272.509"/>
<polygon fill="#000000" stroke="#000000" points="81.6851,-268.9962 71.2941,-271.0643 80.7068,-275.9275 81.6851,-268.9962"/>
<text text-anchor="middle" x="136.4232" y="-278.1081" font-family="Times,serif" font-size="14.00" fill="#000000">1, 1, 1, 0, 1, 1, 1</text>
</g>
<!-- 4&#45;&gt;3 -->
<g id="edge4" class="edge">
<title>4&#45;&gt;3</title>
<path fill="none" stroke="#000000" d="M61.6281,-255.3495C75.5933,-241.555 93.8644,-225.3031 112.4616,-213.8465 142.1564,-195.5533 179.0317,-181.5103 207.4818,-172.2691"/>
<polygon fill="#000000" stroke="#000000" points="208.6914,-175.5574 217.168,-169.2015 206.578,-168.8841 208.6914,-175.5574"/>
<text text-anchor="middle" x="157.9616" y="-216.6465" font-family="Times,serif" font-size="14.00" fill="#000000">0, 1, 1, 0, 1, 1, 1</text>
</g>
<!-- 3&#45;&gt;2 -->
<g id="edge5" class="edge">
<title>3&#45;&gt;2</title>
<path fill="none" stroke="#000000" d="M276.1899,-187.2415C288.7701,-203.3877 303.4459,-224.6639 312.4616,-245.8465 327.8706,-282.0502 335.9869,-326.0905 340.1836,-358.6953"/>
<polygon fill="#000000" stroke="#000000" points="336.7369,-359.3478 341.4127,-368.855 343.6863,-358.507 336.7369,-359.3478"/>
<text text-anchor="middle" x="377.9616" y="-278.1081" font-family="Times,serif" font-size="14.00" fill="#000000">1, 1, 1, 0, 0, 0, 1</text>
</g>
<!-- 3&#45;&gt;1 -->
<g id="edge6" class="edge">
<title>3&#45;&gt;1</title>
<path fill="none" stroke="#000000" d="M282.5982,-138.8317C303.556,-124.8097 332.3158,-106.1014 358.4616,-90.9232 378.7605,-79.1394 401.864,-67.0216 421.2215,-57.2171"/>
<polygon fill="#000000" stroke="#000000" points="423.0349,-60.2227 430.3946,-52.6013 419.8885,-53.9697 423.0349,-60.2227"/>
<text text-anchor="middle" x="403.9616" y="-93.7232" font-family="Times,serif" font-size="14.00" fill="#000000">0, 1, 1, 0, 0, 0, 1</text>
</g>
<!-- 1&#45;&gt;2 -->
<g id="edge7" class="edge">
<title>1&#45;&gt;2</title>
<path fill="none" stroke="#000000" d="M465.898,-73.2536C468.0779,-129.1782 466.2435,-237.6385 427.4616,-318.7697 416.8003,-341.0731 398.1586,-361.2967 381.2398,-376.5673"/>
<polygon fill="#000000" stroke="#000000" points="378.8487,-374.0086 373.6223,-383.2247 383.4552,-379.2794 378.8487,-374.0086"/>
<text text-anchor="middle" x="502.9616" y="-216.6465" font-family="Times,serif" font-size="14.00" fill="#000000">1, 0, 1, 0, 0, 0, 0</text>
</g>
<!-- 1&#45;&gt;1 -->
<g id="edge8" class="edge">
<title>1&#45;&gt;1</title>
<path fill="none" stroke="#000000" d="M498.2941,-47.7054C509.2668,-47.5338 517.9232,-43.7858 517.9232,-36.4616 517.9232,-31.6551 514.1952,-28.3888 508.5311,-26.6626"/>
<polygon fill="#000000" stroke="#000000" points="508.6851,-23.1497 498.2941,-25.2178 507.7068,-30.081 508.6851,-23.1497"/>
<text text-anchor="middle" x="563.4232" y="-32.2616" font-family="Times,serif" font-size="14.00" fill="#000000">0, 0, 1, 0, 0, 0, 0</text>
</g>
</g>
</svg>
